<svg xmlns="http://www.w3.org/2000/svg" width="520.77" height="588.61" viewBox="0 0 520.77 588.61">
  <defs>
    <style>
      .ee54fd83-173f-4556-bfd9-e9ac48e534e9 {
        fill: #d0dde3;
      }
    </style>
  </defs>
  <g id="fb5918ca-a75b-422c-a449-0396dc41a81a" data-name="Layer 2">
    <g id="b60ee00d-e598-4a78-9fd0-a76786e96a9d" data-name="Layer 1">
      <path class="ee54fd83-173f-4556-bfd9-e9ac48e534e9" d="M322.61,216l58.29,7.13V386.32L0,588.61,203.45,369.29l-63.67-6V204l381-204Zm97.1-138.32L159.65,219.61v129H216.9l62.45-36.09L106,508.1,361.9,369.84V239.19H303.65l-64,38.75Z"/>
      <path class="ee54fd83-173f-4556-bfd9-e9ac48e534e9" d="M105.48,460l71.46-77.93L120.8,366V194L334.74,84.36c-16.16-6.68-91-35.07-189.06,19.38C82.27,139,50.19,188.13,38.32,263.49,18.94,386.49,105.48,460,105.48,460Z"/>
      <path class="ee54fd83-173f-4556-bfd9-e9ac48e534e9" d="M416.26,134.78l-69.39,73.16L396.68,220V396L182.81,508.1C193,512.43,419.71,585,481.68,341.42,494.24,292,479.1,186.58,416.26,134.78Z"/>
    </g>
  </g>
</svg>
